<?xml version="1.0" encoding="UTF-8" standalone="no"?>
<!-- Created with Inkscape (http://www.inkscape.org/) -->

<svg
   width="512"
   height="512"
   viewBox="0 0 135.46667 135.46667"
   version="1.1"
   id="svg1"
   xmlns="http://www.w3.org/2000/svg"
   xmlns:svg="http://www.w3.org/2000/svg">
  <defs
     id="defs1" />
  <g
     id="layer1">
    <path
       id="rect1"
       style="fill:#ffffff;fill-opacity:1;stroke:none;stroke-width:0.299209;stroke-opacity:1"
       d="M 0.11604304,84.486415 50.980252,135.35063 135.35063,50.980251 84.486416,0.11604197 Z M 55.348069,46.004991 c 1.293628,-1.293628 2.794904,-2.491038 4.50377,-3.593015 1.692895,-1.117951 3.657142,-2.172248 5.893041,-3.162433 l 7.953396,7.953395 -3.233922,3.233921 -6.180647,-4.312032 -1.604977,-0.0719 c -0.974214,0.303442 -1.820603,0.670866 -2.539286,1.102077 -0.70271,0.415239 -1.365593,0.934184 -1.988451,1.557042 -1.964398,1.964398 -2.762807,4.200525 -2.395481,6.707927 0.367326,2.475461 1.964146,5.557977 4.790963,9.247212 l 9.822011,-9.822012 1.844649,3.042182 -9.390602,9.438537 c 0.319414,0.351356 0.662852,0.726777 1.030177,1.126046 l 1.557043,1.557042 0.958275,0.958275 c 0.351356,0.319413 0.734774,0.670848 1.150012,1.054145 l 8.192655,-8.192655 1.820681,2.970281 -7.474464,7.474465 c 3.289967,2.93861 6.420462,4.647382 9.391015,5.126505 2.954581,0.463148 5.46976,-0.343258 7.545952,-2.41945 0.335385,-0.335385 0.718804,-0.814761 1.150014,-1.437619 0.431209,-0.622858 0.902589,-1.365294 1.413651,-2.227712 l 0.04752,-1.485553 -4.671127,-7.114957 3.138053,-3.138051 8.193067,8.193066 c -1.070038,2.283812 -2.196305,4.304036 -3.378137,6.060813 -1.165862,1.740808 -2.43524,3.298059 -3.808721,4.67154 -3.673264,3.673265 -7.682134,5.541552 -12.026169,5.605435 -4.344033,0.06389 -8.879433,-1.676875 -13.606764,-5.222373 l -4.527737,4.527737 -1.844649,-2.946314 3.713266,-3.713265 C 60.514644,78.481792 60.227184,78.210322 59.92374,77.938821 L 58.701826,76.716906 C 58.446294,76.461375 57.91935,75.902448 57.120817,75.040028 56.705578,74.592846 56.378134,74.23342 56.138573,73.961918 l -4.335998,4.335997 -1.892583,-2.994247 4.168642,-4.168643 c -3.066378,-4.535682 -4.488101,-8.991117 -4.264511,-13.367093 0.223591,-4.375976 2.068301,-8.297296 5.533946,-11.762941 z" />
  </g>
</svg>
